<?xml version="1.0" standalone="no"?><!DOCTYPE svg PUBLIC "-//W3C//DTD SVG 1.1//EN" "http://www.w3.org/Graphics/SVG/1.1/DTD/svg11.dtd"><svg class="icon" width="200px" height="200.00px" viewBox="0 0 1024 1024" version="1.1" xmlns="http://www.w3.org/2000/svg"><path fill="#ffffff" d="M511.4 844.9m-40 0a40 40 0 1 0 80 0 40 40 0 1 0-80 0ZM660 844.9m-40 0a40 40 0 1 0 80 0 40 40 0 1 0-80 0ZM362.7 844.9m-40 0a40 40 0 1 0 80 0 40 40 0 1 0-80 0ZM898.7 135.7H126.8c-16.5 0-29.8 13.3-29.8 29.8v563.6c0 16.5 13.3 29.8 29.8 29.8h771.9c16.5 0 29.8-13.3 29.8-29.8V165.5c0-16.4-13.4-29.8-29.8-29.8z m-170 104.5c39.8 0 72 32.2 72 72s-32.2 72-72 72-72-32.2-72-72c0-39.7 32.3-72 72-72z m65.1 413.2c-18.7 1.3-41.9 0.9-68.4-3.3-39.3-6.3-78.1-20-115.4-40.6-45.6-25.2-89-61-129.1-106.2-38.8-43.9-65.2-39.1-73.9-37.5-32.6 5.9-70.9 42.4-108 102.6-15.1 24.5-27.3 48.7-36 67.3-8.9 19-30.9 28-50.5 20.5-21.7-8.3-31.9-33.3-22-54.3 9.6-20.6 23-47.1 39.7-74.3 50.8-82.8 105.4-130.1 162.5-140.5 25.9-4.7 51.7-1.8 76.7 8.8 24.9 10.5 48.9 28.8 71.5 54.4 59.6 67.4 124.5 107.8 192.8 120.1 50.5 9.1 84.5-1.4 84.9-1.5l-0.4 0.1 10.8 31.8c8.3 24.6-9 50.8-35.2 52.6z" /></svg>