<?xml version="1.0" standalone="no"?><!DOCTYPE svg PUBLIC "-//W3C//DTD SVG 1.1//EN" "http://www.w3.org/Graphics/SVG/1.1/DTD/svg11.dtd"><svg class="icon" width="200px" height="153.29px" viewBox="0 0 1336 1024" version="1.1" xmlns="http://www.w3.org/2000/svg"><path fill="#ffffff" d="M574.249271 48.579431c33.555607-25.521701 74.057132-41.81951 115.99064-46.330457 36.619571-4.053952 74.185131 0.686992 108.628727 13.805838 122.204568 46.286458 244.396136 92.602915 366.601704 138.904372 22.899732 8.849896 47.346445 13.704839 71.894158 14.049835 22.956731 0.270997 45.943462-0.129998 68.900192 0.184998 15.853814 0.687992 28.671664 14.693828 29.932649 30.189646v449.78173c-0.615993 10.783874-5.929931 21.424749-15.137822 27.339679-6.029929 4.109952-13.419843 5.728933-20.637758 5.513936-24.861709-0.071999-49.724417 0-74.572126-0.043-7.360914-0.114999-14.793827 1.002988-21.596747 3.866955-12.301856 4.869943-20.809756 15.538818-31.306633 23.129729-3.923954 2.705968-9.695886 2.147975-13.089847-1.159987-2.706968-2.59297-4.926942-5.642934-7.318914-8.5079C1011.256149 528.778803 869.989805 358.252802 728.70746 187.7278c-10.21188-12.975848-29.803651-16.985801-44.253481-8.950895-64.576243 35.717581-129.108487 71.521162-193.66973 107.281743-40.573525 23.788721-92.717913 27.081683-135.553412 7.404913-25.649699-12.946848-30.504643-51.959391-10.539876-71.894158 76.490104-57.701324 153.038207-115.331648 229.55831-172.989972m637.608528 197.994679c-7.432913 0.87399-12.80385 8.234903-12.216857 15.553818-0.014 108.828725 0.015 217.657449-0.014 326.487174-0.701992 7.747909 5.427936 15.524818 13.389843 15.753816 10.025883 0.185998 20.079765 0.142998 30.133647 0.027999 7.432913-0.014 13.905837-6.80192 13.747839-14.206833 0.03-109.888712 0.042999-219.777424 0-329.666137 0.114999-7.318914-6.300926-14.020836-13.64784-14.049835-10.454877-0.029-20.937755-0.229997-31.392632 0.099998zM4.309949 188.943786c5.369937-10.425878 16.812803-17.299797 28.542666-17.0718 74.042132-0.042999 148.084265 0 222.112397-0.028 4.582946 0.070999 9.279891-0.400995 13.776839 0.729992 8.5649 2.749968 12.903849 13.805838 8.664898 21.697745-2.634969 5.054941-5.642934 9.909884-7.761909 15.223822-13.67784 31.993625-13.834838 71.378164 5.398937 101.180814 13.175846 21.239751 33.540607 37.880556 56.970332 46.530455 57.057331 22.112741 123.538552 18.016789 177.286923-11.313867 56.555337-31.163635 113.068675-62.399269 169.595012-93.618903 5.685933-3.680957 13.67684-2.019976 17.499795 3.564958 130.641469 157.738152 261.568935 315.246306 392.123405 473.082456 5.327938 6.301926 10.411878 12.946848 13.734839 20.565759 9.666887 20.981754 7.990906 46.745452-4.525947 66.194224-9.208892 14.909825-24.303715 25.979696-41.259516 30.389644-20.694757 5.771932-43.752487 1.504982-61.182284-10.969871-5.599934-3.923954-10.282879-8.921895-15.30982-13.489842 2.363972 15.924813 1.002988 32.738616-6.615923 47.159447-9.709886 19.66377-29.201658 33.856603-50.812404 37.394562-22.742733 4.180951-47.247446-3.079964-63.917251-19.119776-2.491971-2.51997-5.055941-4.969942-7.991906-6.945919 1.059988 8.306903 2.033976 16.741804 0.715991 25.091706-3.135963 23.773721-19.147776 46.029461-41.80351 54.65036-21.425749 8.793897-46.90345 6.559923-66.55222-5.685934-7.260915-4.29595-13.204845-10.339879-19.205775-16.16881-0.228997 2.349972-0.242997 4.725945 0.129999 7.103917 3.178963 20.794756-4.22595 42.864498-19.162776 57.672324-12.087858 12.402855-28.814662 19.62077-45.957461 21.224751h-8.922896c-13.246845-0.916989-26.236693-5.255938-37.149564-12.859849 4.811944-9.868884 11.169869-18.962778 15.209821-29.216658 12.372855-29.129659 13.146846-62.914263 2.275974-92.616914-7.259915-19.849767-19.319774-38.167553-35.574583-51.801393-17.414796-14.850826-39.039543-24.489713-61.596279-28.18467-13.018847-22.828732-33.498607-41.346515-57.759323-51.529396-4.439948-2.061976-9.222892-3.149963-13.704839-5.054941-1.560982-1.961977-1.889978-4.625946-2.835967-6.873919-12.81785-37.894556-45.671465-67.855205-84.311012-77.881088-8.391902-27.554677-25.935696-52.473385-49.895415-68.642195-24.289715-16.627805-54.60836-24.131717-83.867017-20.823756-25.979696 2.706968-50.984403 13.862838-70.333176 31.406632-8.950895 7.905907-16.169811 17.486795-23.845721 26.580688-11.899861 14.349832-23.87372 28.657664-35.745581 43.065495-0.959989 1.68998-2.907966 1.860978-4.654945 1.789979-20.078765-0.029-40.157529-0.056999-60.236294 0.014C25.778698 682.062007 5.699933 669.00016 0 649.40939V208.306559c0.615993-6.559923 1.016988-13.476842 4.309949-19.362773m88.965958 59.076308c-7.375914 0.915989-12.702851 8.205904-12.144858 15.466818-0.028 83.079026 0.015 166.158053-0.014 249.23708 0.099999 4.769944-0.615993 9.939884 1.932978 14.249833 2.477971 4.597946 7.64791 7.447913 12.860849 7.289914 9.580888 0.015 19.190775 0.114999 28.786663-0.056999 7.417913-0.029 13.848838-6.81692 13.705839-14.206834 0.014-86.000992 0.028-172.015984-0.015-258.016976 0.129998-7.317914-6.257927-14.049835-13.60484-14.077835-10.497877-0.028-21.023754-0.242997-31.507631 0.114999z m111.507693 417.915102c15.008824-20.679758 43.451491-30.231646 67.826205-22.226739 15.209822 4.855943 28.915661 15.667816 35.589583 30.390643 7.71891 16.082812 6.586923 35.87558-2.663968 51.099402-3.164963 3.364961 0.84499 9.265891 5.06994 6.559923 12.029859-5.757933 25.806698-8.006906 38.982543-5.571935 19.248774 3.021965 36.276575 16.612805 43.981485 34.429597 6.114928 13.804838 6.84592 29.974649 1.632981 44.181482-0.787991 2.505971-2.276973 5.441936-0.544994 7.904907 2.019976 2.348972 5.485936 1.761979 8.119905 1.030988 9.639887-2.763968 19.936766-4.653945 29.90465-2.505971 17.113799 3.322961 32.552619 14.278833 41.345515 29.329657 6.315926 10.355879 9.093893 22.599735 8.664898 34.673593 1.73298 1.474983 3.851955 0.500994 5.699934-0.157998 18.417784-7.002918 40.08553-4.396948 56.426338 6.573923 12.731851 8.219904 21.839744 21.639746 25.291704 36.347574 3.651957 15.123823 1.145987 31.56463-6.744921 44.955473-4.052953 6.83092-6.902919 14.47983-12.559853 20.249763-10.984871 15.997813-30.146647 25.922696-49.538419 25.822698-12.602852 0.099999-25.133705-3.938954-35.402585-11.213869-15.39582-8.692898-25.306703-25.134705-28.21367-42.319504-0.801991-3.136963-4.324949-0.601993-6.099928 0.156998-19.506771 10.482877-44.869474 7.789909-62.099273-5.98693-17.772792-11.141869-28.843662-32.093624-27.883673-53.060378-0.042999-2.019976 0.371996-4.067952-0.128998-6.029929-1.030988-2.376972-3.608958-0.643992-5.212939-0.113999-17.600794 8.047906-38.854545 7.145916-55.768347-2.191974-11.12787-6.515924-21.896743-14.621829-28.212669-26.136694-6.716921-11.542865-9.38089-25.419702-7.246915-38.624547 0.414995-2.491971 1.059988-6.959918-2.835967-6.616923-16.969801 9.136893-38.066554 10.024883-55.624348 2.004977-8.177904-3.307961-14.407831-9.723886-21.983742-13.991836-11.714863-10.469877-19.104776-25.721699-19.63477-41.460515-0.701992-14.249833 4.081952-28.585665 13.017847-39.685534 15.596817-19.276774 31.249634-38.524549 46.846451-57.815323z"  /></svg>