<?xml version="1.0" standalone="no"?><!DOCTYPE svg PUBLIC "-//W3C//DTD SVG 1.1//EN" "http://www.w3.org/Graphics/SVG/1.1/DTD/svg11.dtd"><svg class="icon" width="200px" height="200.00px" viewBox="0 0 1024 1024" version="1.1" xmlns="http://www.w3.org/2000/svg"><path fill="#ffffff" d="M244.1 832V711.4 694c0-9.4-8.3-18.4-18-18-9.8 0.4-18 7.9-18 18v138c0 9.4 8.3 18.4 18 18 9.7-0.4 18-7.9 18-18zM434.7 832V692v-20c0-9.4-8.3-18.4-18-18-9.8 0.4-18 7.9-18 18v160c0 9.4 8.3 18.4 18 18 9.7-0.4 18-7.9 18-18zM625.3 832v-76.1V634v-27.9c0-9.4-8.3-18.4-18-18-9.8 0.4-18 7.9-18 18V832c0 9.4 8.3 18.4 18 18 9.8-0.4 18-7.9 18-18zM815.9 832v-38.2V702 591.5v-96c0-15.6 0.5-31.2 0-46.8v-0.7c0-9.4-8.3-18.4-18-18-9.8 0.4-18 7.9-18 18v336.5c0 15.6-0.5 31.2 0 46.8v0.7c0 9.4 8.3 18.4 18 18 9.8-0.4 18-7.9 18-18zM238.8 521.1c17.8-17.8 35.5-35.6 53.3-53.4 28.3-28.4 56.7-56.8 85-85.2l19.6-19.6h-25.5c14.4 14.4 28.8 28.7 43.2 43.1 23 22.9 45.9 45.9 68.9 68.8l15.9 15.9c6.9 6.9 18.6 6.9 25.5 0l28.4-28.4 68.3-68.3 82.6-82.6 71.4-71.4c11.5-11.5 23.6-22.7 34.7-34.7l0.5-0.5c11-11 2.9-30.7-12.7-30.7H648.6c-9.4 0-18.4 8.3-18 18 0.4 9.8 7.9 18 18 18h149.3l-18-18v149.3c0 9.4 8.3 18.4 18 18 9.8-0.4 18-7.9 18-18V210.6v-18.5c0-9.7-8.2-18-18-18H648.6c-9.4 0-18.4 8.3-18 18 0.4 9.8 7.9 18 18 18h149.3c-4.2-10.2-8.5-20.5-12.7-30.7l-28.4 28.4-68.3 68.3-82.6 82.6-71.4 71.4c-11.5 11.5-23.7 22.6-34.7 34.7l-0.5 0.5h25.5c-14.4-14.4-28.8-28.7-43.2-43.1-23-22.9-45.9-45.9-68.9-68.8l-15.9-15.9c-6.9-6.9-18.6-6.9-25.5 0-17.8 17.8-35.5 35.6-53.3 53.4-28.3 28.4-56.7 56.8-85 85.2l-19.6 19.6c-6.7 6.7-7.2 18.9 0 25.5 7.1 6.5 18.3 7 25.4-0.1z"  /></svg>