<?xml version="1.0" standalone="no"?><!DOCTYPE svg PUBLIC "-//W3C//DTD SVG 1.1//EN" "http://www.w3.org/Graphics/SVG/1.1/DTD/svg11.dtd"><svg class="icon" width="200px" height="200.00px" viewBox="0 0 1024 1024" version="1.1" xmlns="http://www.w3.org/2000/svg"><path fill="#ffffff" d="M952.32 808.96c-5.12-15.36-15.36-30.72-25.6-40.96-15.36-10.24-30.72-20.48-46.08-25.6-15.36-5.12-92.16-40.96-107.52-46.08-15.36-5.12-35.84-10.24-51.2-15.36-15.36-5.12-25.6-15.36-40.96-25.6-15.36-15.36-25.6-35.84-30.72-61.44 0-15.36 0-35.84 10.24-51.2 0-5.12 5.12-10.24 10.24-15.36 5.12-5.12 10.24-5.12 10.24-10.24l15.36-15.36c5.12-5.12 10.24-10.24 15.36-20.48 5.12 0 10.24-10.24 15.36-20.48 5.12-10.24 5.12-20.48 10.24-30.72 5.12 0 10.24-5.12 15.36-10.24 5.12-5.12 10.24-10.24 15.36-20.48 0-5.12 0-20.48 5.12-30.72v-25.6c0-5.12-5.12-10.24-5.12-15.36 0-5.12-5.12-10.24-10.24-10.24 0-25.6 0-51.2-5.12-76.8s-10.24-46.08-15.36-71.68c-5.12-25.6-20.48-46.08-35.84-66.56-10.24-10.24-15.36-20.48-25.6-25.6-10.24-10.24-25.6-15.36-35.84-25.6l-46.08-15.36c-15.36-5.12-35.84-5.12-51.2-5.12-15.36 0-30.72 0-40.96 5.12-20.48-10.24-35.84-5.12-46.08 0-35.84 15.36-66.56 40.96-92.16 71.68-10.24 20.48-20.48 40.96-25.6 66.56-10.24 46.08-15.36 92.16-15.36 138.24-5.12 5.12-5.12 15.36-10.24 20.48-5.12 10.24-5.12 15.36-5.12 20.48v30.72c5.12 15.36 10.24 30.72 20.48 40.96 5.12 5.12 10.24 5.12 15.36 5.12l10.24 30.72c5.12 10.24 5.12 15.36 10.24 25.6 5.12 5.12 5.12 15.36 15.36 20.48 10.24 10.24 20.48 15.36 25.6 25.6 10.24 10.24 15.36 20.48 15.36 35.84v25.6c0 10.24 0 15.36-5.12 25.6s-5.12 15.36-15.36 25.6c-10.24 10.24-20.48 15.36-30.72 25.6-15.36 10.24-35.84 20.48-56.32 25.6-20.48 5.12-112.64 40.96-133.12 46.08-20.48 5.12-35.84 15.36-51.2 30.72-15.36 10.24-25.6 30.72-25.6 51.2-5.12 25.6-5.12 51.2-5.12 76.8 0 15.36 5.12 35.84 15.36 46.08 15.36 5.12 30.72 15.36 46.08 15.36 128 25.6 256 40.96 389.12 40.96 128 0 256-15.36 378.88-51.2 10.24-5.12 20.48-5.12 25.6-15.36 5.12-10.24 10.24-20.48 10.24-30.72 0-15.36 5.12-30.72 5.12-46.08v-20.48l-15.36-30.72z m-368.64-5.12l5.12 35.84c0 10.24 5.12 20.48 5.12 30.72v20.48c0 5.12-5.12 10.24-5.12 15.36l-15.36 15.36c-5.12 5.12-10.24 10.24-20.48 15.36-5.12 5.12-10.24 5.12-15.36 5.12-5.12 0-10.24-5.12-15.36-5.12-5.12-5.12-15.36-10.24-20.48-15.36-5.12-5.12-10.24-10.24-15.36-20.48-5.12-5.12-5.12-10.24-5.12-15.36 0-10.24 0-15.36 5.12-25.6 0-10.24 5.12-20.48 5.12-35.84 0-10.24 5.12-25.6 10.24-35.84 5.12-10.24 5.12-15.36 5.12-25.6-5.12-5.12-10.24-10.24-15.36-20.48-5.12-5.12-5.12-10.24-5.12-15.36 0-5.12 0-10.24 5.12-15.36 5.12-5.12 5.12-10.24 10.24-15.36l15.36-15.36h46.08l15.36 15.36c5.12 5.12 10.24 10.24 10.24 15.36 5.12 5.12 5.12 10.24 5.12 15.36 0 5.12 0 15.36-5.12 20.48l-15.36 15.36c5.12 20.48 10.24 25.6 10.24 40.96z m0 0M957.44 808.96z m15.36-153.6z m0 0M962.56 655.36h10.24c-10.24-5.12-25.6-5.12-35.84-10.24-10.24-5.12-20.48-10.24-30.72-20.48-5.12-5.12-10.24-15.36-15.36-20.48-5.12-5.12-5.12-15.36-5.12-20.48 0-10.24 0-25.6 5.12-35.84 0-5.12 5.12-5.12 5.12-10.24l10.24-10.24 10.24-10.24c5.12-5.12 5.12-10.24 10.24-15.36 5.12-5.12 5.12-10.24 5.12-20.48 0-5.12 5.12-15.36 5.12-20.48 5.12 0 10.24-5.12 15.36-5.12 5.12-5.12 5.12-10.24 10.24-15.36 5.12-5.12 10.24-15.36 10.24-25.6v-20.48c0-5.12-5.12-10.24-5.12-10.24 0-5.12-5.12-5.12-5.12-10.24 0-20.48 0-35.84-5.12-56.32-5.12-15.36-5.12-35.84-10.24-51.2-5.12-20.48-15.36-35.84-25.6-51.2-5.12-5.12-10.24-15.36-20.48-20.48-20.48-15.36-40.96-25.6-61.44-30.72-10.24-5.12-25.6-5.12-35.84-5.12h-15.36c10.24 40.96 15.36 81.92 20.48 128 5.12 15.36 10.24 25.6 15.36 40.96v46.08c0 15.36-5.12 35.84-15.36 51.2-5.12 15.36-20.48 30.72-30.72 40.96l-10.24 15.36c-5.12 10.24-10.24 20.48-10.24 30.72-10.24 20.48-20.48 35.84-40.96 51.2v20.48c0 10.24 0 15.36-5.12 25.6 5.12 5.12 15.36 10.24 20.48 15.36 15.36 5.12 25.6 10.24 40.96 15.36 15.36 5.12 30.72 10.24 40.96 15.36l40.96 20.48 25.6 10.24c20.48 10.24 40.96 20.48 56.32 35.84 20.48 20.48 35.84 40.96 46.08 66.56 5.12 15.36 10.24 30.72 10.24 51.2 0 5.12 5.12 15.36 5.12 20.48v-184.32c-10.24-10.24-25.6-15.36-35.84-20.48z m-803.84 30.72c46.08-20.48 87.04-35.84 133.12-51.2 15.36-5.12 25.6-10.24 40.96-15.36 5.12-5.12 15.36-10.24 20.48-15.36 0-5.12-5.12-10.24-5.12-20.48v-10.24l-15.36-15.36c-10.24-10.24-20.48-25.6-25.6-40.96-10.24-10.24-15.36-20.48-20.48-30.72v-5.12c-5.12-10.24-15.36-15.36-20.48-25.6-10.24-15.36-15.36-30.72-20.48-46.08-5.12-15.36-10.24-40.96-5.12-61.44 0-20.48 5.12-35.84 15.36-51.2 0-20.48 0-46.08 5.12-66.56 0-25.6 5.12-46.08 10.24-66.56h-10.24c-10.24 0-20.48 0-30.72 5.12-10.24 0-20.48 5.12-30.72 10.24-10.24 0-20.48 10.24-30.72 15.36-15.36 10.24-20.48 20.48-30.72 30.72-10.24 15.36-15.36 30.72-20.48 46.08-5.12 15.36-10.24 35.84-10.24 51.2 0 20.48-5.12 35.84 0 56.32-10.24 5.12-15.36 15.36-15.36 30.72v20.48c0 5.12 5.12 10.24 10.24 20.48l10.24 10.24h5.12l5.12 20.48c0 5.12 5.12 10.24 5.12 20.48 0 5.12 5.12 10.24 10.24 15.36 5.12 5.12 15.36 10.24 20.48 20.48 5.12 5.12 10.24 15.36 10.24 25.6v20.48c0 5.12 0 10.24-5.12 20.48 0 5.12-5.12 10.24-10.24 15.36l-20.48 20.48c-15.36 10.24-25.6 15.36-40.96 20.48-10.24 5.12-51.2 15.36-76.8 25.6v179.2h5.12c0-10.24 0-20.48 5.12-35.84v-5.12c5.12-35.84 20.48-66.56 51.2-92.16 25.6-25.6 51.2-40.96 76.8-46.08h5.12z m0 0" /></svg>