<?xml version="1.0" standalone="no"?><!DOCTYPE svg PUBLIC "-//W3C//DTD SVG 1.1//EN" "http://www.w3.org/Graphics/SVG/1.1/DTD/svg11.dtd"><svg class="icon" width="200px" height="200.00px" viewBox="0 0 1024 1024" version="1.1" xmlns="http://www.w3.org/2000/svg"><path fill="#ffffff" d="M675.455576 313.793241H569.28801a17.25095 17.25095 0 0 1-16.380724-12.029594l-33.426915-104.017596a8.190362 8.190362 0 0 0-7.678464-5.682064 8.190362 8.190362 0 0 0-7.780844 5.630874L471.617944 301.507698a17.404519 17.404519 0 0 1-16.380724 12.029595H349.018464a8.190362 8.190362 0 0 0-7.883223 5.784443 8.343931 8.343931 0 0 0 3.173765 9.367726L430.154237 392.932613a17.916417 17.916417 0 0 1 6.757048 20.066387l-33.375725 103.556889c-1.177365 3.429714 0 7.166567 2.866627 9.316537a8.036793 8.036793 0 0 0 9.623675 0l85.998801-64.089583a16.739052 16.739052 0 0 1 20.271145 0l85.998801 64.140772a8.036793 8.036793 0 0 0 9.623675 0 8.395121 8.395121 0 0 0 2.917816-9.367726l-32.812637-103.812838a17.916417 17.916417 0 0 1 6.245151-19.810438l85.896421-64.243151a8.4975 8.4975 0 0 0 2.610677-9.111778 8.292741 8.292741 0 0 0-7.320136-5.784443z m194.521096 610.079584l-121.319736-297.412517h2.14997c5.016597 0 9.828434-2.04759 13.360528-5.630874a19.40092 19.40092 0 0 0 5.528494-13.616477v-62.963407c0-5.835633 3.378524-11.108178 8.59988-13.514097l56.411118-25.492502a19.45211 19.45211 0 0 0 9.572486-25.441311l-21.397321-49.039792a14.333133 14.333133 0 0 1 2.969006-15.612878l37.163768-37.931613a19.605679 19.605679 0 0 0 0-27.130574l-43.664867-44.586283a15.10098 15.10098 0 0 1-3.276145-15.766447l21.909218-58.714657a19.34973 19.34973 0 0 0-10.74985-24.878224l-48.220756-19.34973a14.179564 14.179564 0 0 1-8.702259-13.05339V120.142372c0-5.118976-2.04759-9.982004-5.528495-13.616477a18.684263 18.684263 0 0 0-13.360528-5.630874H689.174433a14.640272 14.640272 0 0 1-13.309338-8.855829L651.03806 34.5019a19.042591 19.042591 0 0 0-10.69866-10.340332 18.581884 18.581884 0 0 0-14.691462 0.614277l-47.196961 21.704459a13.718856 13.718856 0 0 1-15.356928-2.866627l-37.368527-37.931613a18.581884 18.581884 0 0 0-26.618676 0l-43.664867 44.535093a14.077185 14.077185 0 0 1-15.356928 3.276144L382.547758 30.867427a18.786643 18.786643 0 0 0-24.417516 10.954609l-18.837833 50.063587a13.821236 13.821236 0 0 1-12.89982 9.009398H273.871893a18.581884 18.581884 0 0 0-13.309338 5.630874 19.29854 19.29854 0 0 0-5.426115 13.616477v62.963407a14.691462 14.691462 0 0 1-8.65107 13.411718l-56.359928 25.594881a18.940212 18.940212 0 0 0-9.982003 10.64747 19.45211 19.45211 0 0 0 0.409518 14.691462l21.243751 49.142171a14.230754 14.230754 0 0 1-2.815437 15.766447l-37.163767 37.675665a19.605679 19.605679 0 0 0 0 27.130574l43.613677 44.586283a14.947411 14.947411 0 0 1 3.224955 15.766446L186.43978 496.233553a19.45211 19.45211 0 0 0 10.852229 24.878225l48.988602 19.452109a14.179564 14.179564 0 0 1 8.855829 13.104579v53.698061c0 10.545091 8.343931 19.144971 18.735453 19.19616L154.343799 920.135973a7.780844 7.780844 0 0 0 1.638072 8.54869 7.473705 7.473705 0 0 0 8.395121 1.535693l141.590882-63.782444a9.162967 9.162967 0 0 1 11.773645 4.965407l57.844431 143.536093a7.780844 7.780844 0 0 0 7.166567 4.914217 7.780844 7.780844 0 0 0 7.166567-4.914217l117.992401-288.30074c2.508298 0.511898 5.118976 0.511898 7.576085 0a21.704459 21.704459 0 0 0 1.023795 3.941612l117.992402 288.30074a7.780844 7.780844 0 0 0 7.166567 4.914217 7.780844 7.780844 0 0 0 7.217756-4.914217l57.690862-144.15037a9.367726 9.367726 0 0 1 11.773645-5.016597l141.590882 63.782444a7.473705 7.473705 0 0 0 8.087982-1.535693 7.780844 7.780844 0 0 0 1.945211-8.087983z m-357.560488-297.770845c-104.324735 0.358328-198.616277-63.424115-238.74905-161.45251a265.982004 265.982004 0 0 1 55.336133-286.304339 254.413117 254.413117 0 0 1 281.031794-57.332534c96.441512 40.644671 159.302539 136.369526 159.302539 242.639473 0.204759 144.662268-114.818636 262.193961-256.972605 262.44991z"  /></svg>